<?xml version="1.0" encoding="UTF-8"?>
<svg width="700pt" height="700pt" version="1.1" viewBox="0 0 700 700" xmlns="http://www.w3.org/2000/svg" xmlns:xlink="http://www.w3.org/1999/xlink">
 <defs>
  <symbol id="t" overflow="visible">
   <path d="m11.719-0.70312c-0.60547 0.3125-1.2344 0.54688-1.8906 0.70312-0.64844 0.16406-1.3281 0.25-2.0469 0.25-2.125 0-3.8086-0.59375-5.0469-1.7812-1.2422-1.1875-1.8594-2.7969-1.8594-4.8281 0-2.0391 0.61719-3.6562 1.8594-4.8438 1.2383-1.1875 2.9219-1.7812 5.0469-1.7812 0.71875 0 1.3984 0.078125 2.0469 0.23438 0.65625 0.15625 1.2852 0.39062 1.8906 0.70312v2.6406c-0.60547-0.40625-1.2031-0.70703-1.7969-0.90625-0.59375-0.19531-1.2188-0.29688-1.875-0.29688-1.168 0-2.0898 0.38281-2.7656 1.1406-0.67969 0.75-1.0156 1.7891-1.0156 3.1094 0 1.3125 0.33594 2.3438 1.0156 3.0938 0.67578 0.75 1.5977 1.125 2.7656 1.125 0.65625 0 1.2812-0.09375 1.875-0.28125 0.59375-0.19531 1.1914-0.50391 1.7969-0.92188z"/>
  </symbol>
  <symbol id="d" overflow="visible">
   <path d="m8.5781-6.9688c-0.27344-0.125-0.53906-0.21094-0.79688-0.26562-0.26172-0.0625-0.52734-0.09375-0.79688-0.09375-0.79297 0-1.4023 0.25781-1.8281 0.76562-0.41797 0.5-0.625 1.2188-0.625 2.1562v4.4062h-3.0625v-9.5781h3.0625v1.5781c0.39453-0.625 0.84375-1.0781 1.3438-1.3594 0.50781-0.28906 1.125-0.4375 1.8438-0.4375 0.10156 0 0.21094 0.007813 0.32812 0.015625 0.125 0 0.30078 0.015625 0.53125 0.046875z"/>
  </symbol>
  <symbol id="b" overflow="visible">
   <path d="m11.016-4.8125v0.875h-7.1406c0.070312 0.71875 0.32812 1.2617 0.76562 1.625 0.44531 0.35547 1.0703 0.53125 1.875 0.53125 0.64453 0 1.3008-0.09375 1.9688-0.28125 0.67578-0.19531 1.3672-0.48828 2.0781-0.875v2.3594c-0.71875 0.27344-1.4453 0.47656-2.1719 0.60938-0.71875 0.14453-1.4375 0.21875-2.1562 0.21875-1.7422 0-3.0898-0.4375-4.0469-1.3125-0.96094-0.88281-1.4375-2.125-1.4375-3.7188 0-1.5625 0.46875-2.7852 1.4062-3.6719 0.94531-0.89453 2.25-1.3438 3.9062-1.3438 1.5 0 2.6953 0.45312 3.5938 1.3594 0.90625 0.90625 1.3594 2.1172 1.3594 3.625zm-3.1406-1.0156c0-0.58203-0.17188-1.0508-0.51562-1.4062-0.33594-0.35156-0.77344-0.53125-1.3125-0.53125-0.59375 0-1.0781 0.16797-1.4531 0.5-0.36719 0.33594-0.59375 0.8125-0.6875 1.4375z"/>
  </symbol>
  <symbol id="k" overflow="visible">
   <path d="m5.7656-4.3125c-0.64844 0-1.1328 0.10938-1.4531 0.32812-0.3125 0.21875-0.46875 0.53906-0.46875 0.95312 0 0.39844 0.125 0.70312 0.375 0.92188 0.25781 0.21875 0.625 0.32812 1.0938 0.32812 0.57031 0 1.0508-0.20703 1.4375-0.625 0.39453-0.41406 0.59375-0.92969 0.59375-1.5469v-0.35938zm4.6719-1.1406v5.4531h-3.0938v-1.4219c-0.40625 0.58594-0.86719 1.0117-1.375 1.2812-0.51172 0.25781-1.1367 0.39062-1.875 0.39062-0.99219 0-1.7969-0.28516-2.4219-0.85938-0.61719-0.58203-0.92188-1.3359-0.92188-2.2656 0-1.1133 0.38281-1.9297 1.1562-2.4531 0.76953-0.53125 1.9844-0.79688 3.6406-0.79688h1.7969v-0.23438c0-0.48828-0.19531-0.84375-0.57812-1.0625-0.375-0.22656-0.96875-0.34375-1.7812-0.34375-0.65625 0-1.2656 0.070313-1.8281 0.20312-0.5625 0.125-1.0859 0.32031-1.5625 0.57812v-2.3281c0.65625-0.15625 1.3125-0.27344 1.9688-0.35938 0.65625-0.082031 1.3164-0.125 1.9844-0.125 1.7266 0 2.9727 0.33984 3.7344 1.0156 0.76953 0.67969 1.1562 1.7891 1.1562 3.3281z"/>
  </symbol>
  <symbol id="c" overflow="visible">
   <path d="m4.8125-12.281v2.7031h3.1562v2.1875h-3.1562v4.0625c0 0.44922 0.085938 0.75 0.26562 0.90625 0.17578 0.15625 0.52344 0.23438 1.0469 0.23438h1.5781v2.1875h-2.625c-1.2109 0-2.0703-0.25-2.5781-0.75-0.5-0.50781-0.75-1.3672-0.75-2.5781v-4.0625h-1.5156v-2.1875h1.5156v-2.7031z"/>
  </symbol>
  <symbol id="j" overflow="visible">
   <path d="m7.9844-8.1719v-5.125h3.0781v13.297h-3.0781v-1.3906c-0.42969 0.57422-0.89844 0.99219-1.4062 1.25-0.5 0.25781-1.0859 0.39062-1.75 0.39062-1.1797 0-2.1484-0.46875-2.9062-1.4062-0.76172-0.9375-1.1406-2.1445-1.1406-3.625 0-1.4688 0.37891-2.6719 1.1406-3.6094 0.75781-0.9375 1.7266-1.4062 2.9062-1.4062 0.65625 0 1.2383 0.13672 1.75 0.40625 0.50781 0.26172 0.97656 0.66797 1.4062 1.2188zm-2.0156 6.2031c0.65625 0 1.1562-0.23828 1.5-0.71875 0.34375-0.47656 0.51562-1.1758 0.51562-2.0938 0-0.90625-0.17188-1.5977-0.51562-2.0781-0.34375-0.47656-0.84375-0.71875-1.5-0.71875s-1.1562 0.24219-1.5 0.71875c-0.34375 0.48047-0.51562 1.1719-0.51562 2.0781 0 0.91797 0.17188 1.6172 0.51562 2.0938 0.34375 0.48047 0.84375 0.71875 1.5 0.71875z"/>
  </symbol>
  <symbol id="f" overflow="visible">
   <path d="m6.5625-1.9688c0.65625 0 1.1562-0.23828 1.5-0.71875 0.34375-0.47656 0.51562-1.1758 0.51562-2.0938 0-0.90625-0.17188-1.5977-0.51562-2.0781-0.34375-0.47656-0.84375-0.71875-1.5-0.71875s-1.1641 0.24219-1.5156 0.71875c-0.34375 0.48047-0.51562 1.1719-0.51562 2.0781s0.17188 1.6055 0.51562 2.0938c0.35156 0.48047 0.85938 0.71875 1.5156 0.71875zm-2.0312-6.2031c0.41406-0.55078 0.87891-0.95703 1.3906-1.2188 0.51953-0.26953 1.1133-0.40625 1.7812-0.40625 1.1758 0 2.1406 0.46875 2.8906 1.4062 0.75781 0.9375 1.1406 2.1406 1.1406 3.6094 0 1.4805-0.38281 2.6875-1.1406 3.625-0.75 0.9375-1.7148 1.4062-2.8906 1.4062-0.66797 0-1.2617-0.13281-1.7812-0.39062-0.51172-0.26953-0.97656-0.6875-1.3906-1.25v1.3906h-3.0625v-13.297h3.0625z"/>
  </symbol>
  <symbol id="e" overflow="visible">
   <path d="m0.21875-9.5781h3.0469l2.5781 6.5 2.1875-6.5h3.0625l-4.0312 10.484c-0.40625 1.0625-0.88281 1.8047-1.4219 2.2344-0.53125 0.42578-1.2422 0.64062-2.125 0.64062h-1.7656v-2.0156h0.95312c0.51953 0 0.89844-0.085937 1.1406-0.25 0.23828-0.16797 0.42188-0.46484 0.54688-0.89062l0.09375-0.25z"/>
  </symbol>
  <symbol id="i" overflow="visible">
   <path d="m10.484-12.359v2.7031c-0.69922-0.3125-1.3828-0.54688-2.0469-0.70312-0.66797-0.16406-1.2969-0.25-1.8906-0.25-0.79297 0-1.375 0.10938-1.75 0.32812s-0.5625 0.55859-0.5625 1.0156c0 0.33594 0.125 0.60156 0.375 0.79688 0.25781 0.1875 0.72266 0.35156 1.3906 0.48438l1.4062 0.28125c1.4141 0.29297 2.4219 0.73047 3.0156 1.3125 0.60156 0.57422 0.90625 1.3984 0.90625 2.4688 0 1.4062-0.42188 2.4531-1.2656 3.1406-0.83594 0.6875-2.1055 1.0312-3.8125 1.0312-0.8125 0-1.625-0.078125-2.4375-0.23438s-1.625-0.38281-2.4375-0.6875v-2.7656c0.8125 0.42969 1.5977 0.75 2.3594 0.96875 0.75781 0.21875 1.4922 0.32812 2.2031 0.32812 0.70703 0 1.2539-0.11719 1.6406-0.35938 0.38281-0.23828 0.57812-0.57812 0.57812-1.0156 0-0.40625-0.13281-0.71094-0.39062-0.92188-0.26172-0.21875-0.77734-0.41406-1.5469-0.59375l-1.2812-0.28125c-1.2734-0.26953-2.2031-0.70312-2.7969-1.2969-0.59375-0.60156-0.89062-1.4102-0.89062-2.4219 0-1.2695 0.41016-2.2422 1.2344-2.9219 0.82031-0.6875 2.0039-1.0312 3.5469-1.0312 0.69531 0 1.4141 0.054687 2.1562 0.15625 0.73828 0.10547 1.5039 0.26172 2.2969 0.46875z"/>
  </symbol>
  <symbol id="h" overflow="visible">
   <path d="m10.344-7.9844c0.38281-0.59375 0.84375-1.0391 1.375-1.3438 0.53125-0.3125 1.1133-0.46875 1.75-0.46875 1.1016 0 1.9414 0.33984 2.5156 1.0156 0.57031 0.67969 0.85938 1.6641 0.85938 2.9531v5.8281h-3.0625v-4.9844-0.23438c0.007812-0.082031 0.015625-0.19531 0.015625-0.34375 0-0.67578-0.10547-1.1641-0.3125-1.4688-0.19922-0.3125-0.51562-0.46875-0.95312-0.46875-0.58594 0-1.0391 0.24219-1.3594 0.71875-0.3125 0.48047-0.47656 1.1719-0.48438 2.0781v4.7031h-3.0781v-4.9844c0-1.0625-0.09375-1.7422-0.28125-2.0469-0.17969-0.3125-0.5-0.46875-0.96875-0.46875-0.58594 0-1.0391 0.24609-1.3594 0.73438-0.3125 0.48047-0.46875 1.168-0.46875 2.0625v4.7031h-3.0781v-9.5781h3.0781v1.4062c0.375-0.53906 0.80078-0.94531 1.2812-1.2188 0.48828-0.26953 1.0312-0.40625 1.625-0.40625 0.65625 0 1.2383 0.16406 1.75 0.48438 0.50781 0.3125 0.89453 0.75781 1.1562 1.3281z"/>
  </symbol>
  <symbol id="a" overflow="visible">
   <path d="m6.0312-7.6094c-0.6875 0-1.2109 0.24609-1.5625 0.73438-0.35547 0.48047-0.53125 1.1797-0.53125 2.0938 0 0.91797 0.17578 1.6211 0.53125 2.1094 0.35156 0.49219 0.875 0.73438 1.5625 0.73438 0.66406 0 1.1719-0.24219 1.5156-0.73438 0.35156-0.48828 0.53125-1.1914 0.53125-2.1094 0-0.91406-0.17969-1.6133-0.53125-2.0938-0.34375-0.48828-0.85156-0.73438-1.5156-0.73438zm0-2.1875c1.6445 0 2.9258 0.44531 3.8438 1.3281 0.92578 0.88672 1.3906 2.1172 1.3906 3.6875 0 1.5742-0.46484 2.8086-1.3906 3.7031-0.91797 0.88672-2.1992 1.3281-3.8438 1.3281-1.6562 0-2.9531-0.44141-3.8906-1.3281-0.92969-0.89453-1.3906-2.1289-1.3906-3.7031 0-1.5703 0.46094-2.8008 1.3906-3.6875 0.9375-0.88281 2.2344-1.3281 3.8906-1.3281z"/>
  </symbol>
  <symbol id="s" overflow="visible">
   <path d="m1.4688-13.297h3.0625v13.297h-3.0625z"/>
  </symbol>
  <symbol id="g" overflow="visible">
   <path d="m11.094-5.8281v5.8281h-3.0781v-4.4531c0-0.83203-0.023437-1.4062-0.0625-1.7188-0.03125-0.3125-0.09375-0.53906-0.1875-0.6875-0.11719-0.19531-0.27734-0.35156-0.48438-0.46875-0.21094-0.11328-0.44531-0.17188-0.70312-0.17188-0.63672 0-1.1367 0.25-1.5 0.75-0.36719 0.49219-0.54688 1.1719-0.54688 2.0469v4.7031h-3.0625v-9.5781h3.0625v1.4062c0.45703-0.55078 0.94531-0.95703 1.4688-1.2188 0.51953-0.26953 1.0938-0.40625 1.7188-0.40625 1.1016 0 1.9414 0.33984 2.5156 1.0156 0.57031 0.67969 0.85938 1.6641 0.85938 2.9531z"/>
  </symbol>
  <symbol id="r" overflow="visible">
   <path d="m7.7656-13.297v2.0156h-1.6875c-0.4375 0-0.74609 0.078125-0.92188 0.23438-0.16797 0.15625-0.25 0.42969-0.25 0.8125v0.65625h2.625v2.1875h-2.625v7.3906h-3.0469v-7.3906h-1.5312v-2.1875h1.5312v-0.65625c0-1.0391 0.28516-1.8125 0.85938-2.3125 0.58203-0.5 1.4844-0.75 2.7031-0.75z"/>
  </symbol>
  <symbol id="q" overflow="visible">
   <path d="m11.094-5.8281v5.8281h-3.0781v-4.4375c0-0.84375-0.023437-1.4219-0.0625-1.7344-0.03125-0.3125-0.09375-0.53906-0.1875-0.6875-0.11719-0.19531-0.27734-0.35156-0.48438-0.46875-0.21094-0.11328-0.44531-0.17188-0.70312-0.17188-0.63672 0-1.1367 0.25-1.5 0.75-0.36719 0.49219-0.54688 1.1719-0.54688 2.0469v4.7031h-3.0625v-13.297h3.0625v5.125c0.45703-0.55078 0.94531-0.95703 1.4688-1.2188 0.51953-0.26953 1.0938-0.40625 1.7188-0.40625 1.1016 0 1.9414 0.33984 2.5156 1.0156 0.57031 0.67969 0.85938 1.6641 0.85938 2.9531z"/>
  </symbol>
  <symbol id="p" overflow="visible">
   <path d="m1.6094-12.75h3.6719l4.6406 8.75v-8.75h3.125v12.75h-3.6875l-4.6406-8.75v8.75h-3.1094z"/>
  </symbol>
  <symbol id="o" overflow="visible">
   <path d="m1.375-3.7188v-5.8594h3.0625v0.96875c0 0.52344-0.007812 1.1719-0.015625 1.9531v1.5625c0 0.77344 0.019531 1.3281 0.0625 1.6719 0.039063 0.33594 0.10938 0.57812 0.20312 0.73438 0.125 0.19922 0.28516 0.35547 0.48438 0.46875 0.20703 0.10547 0.44141 0.15625 0.70312 0.15625 0.64453 0 1.1484-0.24219 1.5156-0.73438 0.36328-0.48828 0.54688-1.1719 0.54688-2.0469v-4.7344h3.0469v9.5781h-3.0469v-1.3906c-0.46875 0.5625-0.96484 0.98047-1.4844 1.25-0.51172 0.25781-1.0742 0.39062-1.6875 0.39062-1.1055 0-1.9492-0.33594-2.5312-1.0156-0.57422-0.67578-0.85938-1.6602-0.85938-2.9531z"/>
  </symbol>
  <symbol id="n" overflow="visible">
   <path d="m1.6094-12.75h5.4531c1.625 0 2.8672 0.35938 3.7344 1.0781 0.875 0.71875 1.3125 1.7461 1.3125 3.0781 0 1.3359-0.4375 2.3672-1.3125 3.0938-0.86719 0.71875-2.1094 1.0781-3.7344 1.0781h-2.1719v4.4219h-3.2812zm3.2812 2.375v3.5625h1.8281c0.63281 0 1.125-0.14844 1.4688-0.45312 0.35156-0.3125 0.53125-0.75391 0.53125-1.3281 0-0.57031-0.17969-1.0078-0.53125-1.3125-0.34375-0.3125-0.83594-0.46875-1.4688-0.46875z"/>
  </symbol>
  <symbol id="m" overflow="visible">
   <path d="m1.4688-9.5781h3.0625v9.4062c0 1.2812-0.30859 2.2578-0.92188 2.9375-0.61719 0.67578-1.5078 1.0156-2.6719 1.0156h-1.5156v-2.0156h0.53125c0.58203 0 0.97656-0.13281 1.1875-0.39062 0.21875-0.26172 0.32812-0.77734 0.32812-1.5469zm0-3.7188h3.0625v2.5h-3.0625z"/>
  </symbol>
  <symbol id="l" overflow="visible">
   <path d="m9.2031-9.2656v2.4844c-0.41797-0.28125-0.83594-0.48828-1.25-0.625-0.41797-0.13281-0.85547-0.20312-1.3125-0.20312-0.85547 0-1.5234 0.25-2 0.75-0.46875 0.49219-0.70312 1.1836-0.70312 2.0781 0 0.89844 0.23438 1.5938 0.70312 2.0938 0.47656 0.5 1.1445 0.75 2 0.75 0.47656 0 0.92969-0.066406 1.3594-0.20312 0.4375-0.14453 0.83594-0.35938 1.2031-0.64062v2.5c-0.48047 0.17969-0.96875 0.30469-1.4688 0.39062-0.49219 0.09375-0.98047 0.14062-1.4688 0.14062-1.7305 0-3.0859-0.44141-4.0625-1.3281-0.96875-0.88281-1.4531-2.1172-1.4531-3.7031 0-1.5703 0.48438-2.8008 1.4531-3.6875 0.97656-0.88281 2.332-1.3281 4.0625-1.3281 0.5 0 0.99219 0.046875 1.4844 0.14062 0.48828 0.085938 0.97266 0.21484 1.4531 0.39062z"/>
  </symbol>
 </defs>
 <g>
  <path d="m564.63 382.7c-21.969 0-40.406 15.203-45.48 35.629h-213.99c-6.1094-54.504-52.453-97.012-108.56-97.012-60.25 0-109.26 49.016-109.26 109.26 0 60.25 49.016 109.27 109.26 109.27 36.93 0 69.613-18.434 89.402-46.562h126.68v37.832c0 6.7656 5.4844 12.25 12.25 12.25s12.25-5.4844 12.25-12.25v-50.082c0-6.7656-5.4844-12.25-12.25-12.25h-125.97c3.0781-8.2266 5.1914-16.926 6.2031-25.953h214.49c5.7266 19.441 23.711 33.688 44.977 33.688 25.863 0 46.902-21.047 46.902-46.906 0-25.863-21.039-46.91-46.902-46.91zm-368.03 132.64c-46.738 0-84.762-38.023-84.762-84.766 0-46.738 38.023-84.762 84.762-84.762 46.738 0 84.762 38.023 84.762 84.762 0.003907 46.742-38.023 84.766-84.762 84.766zm368.03-63.328c-12.355 0-22.406-10.051-22.406-22.406 0-12.355 10.051-22.406 22.406-22.406 12.352 0 22.402 10.051 22.402 22.406 0 12.355-10.051 22.406-22.402 22.406z"/>
  <path d="m196.7 394.48c9.6406 0 18.703 3.7539 25.523 10.574 3.418 3.418 8.957 3.418 12.371 0 3.4141-3.418 3.418-8.957 0-12.371-4.5117-4.5117-9.7109-8.0625-15.328-10.68v-11.449c0-4.832-3.918-8.75-8.75-8.75s-8.75 3.918-8.75 8.75v6.6719c-1.6719-0.15625-3.3633-0.24609-5.0664-0.24609-1.6992 0-3.3906 0.089844-5.0664 0.24609v-6.6719c0-4.832-3.918-8.75-8.75-8.75s-8.75 3.918-8.75 8.75v11.449c-5.6172 2.6133-10.82 6.1641-15.328 10.68-10.125 10.125-15.699 23.578-15.699 37.895 0 14.32 5.5742 27.777 15.699 37.898 4.5117 4.5117 9.7109 8.0625 15.328 10.68v11.449c0 4.832 3.918 8.75 8.75 8.75s8.75-3.918 8.75-8.75v-6.6719c1.6719 0.15625 3.3633 0.24609 5.0664 0.24609 1.6992 0 3.3906-0.089843 5.0664-0.24609v6.6719c0 4.832 3.918 8.75 8.75 8.75s8.75-3.918 8.75-8.75v-11.449c5.6172-2.6133 10.82-6.1641 15.328-10.68 3.418-3.418 3.418-8.957 0-12.371-3.418-3.4141-8.957-3.418-12.371 0-6.8164 6.8164-15.883 10.574-25.523 10.574s-18.703-3.7539-25.523-10.574c-6.8164-6.8164-10.574-15.883-10.574-25.527 0-9.6406 3.7539-18.703 10.574-25.523 6.8203-6.8164 15.887-10.574 25.523-10.574z"/>
  <path d="m355.61 126.86v14.031h-0.76562c-15.629 0-28.34 12.711-28.34 28.34s12.711 28.34 28.34 28.34h7.4258c-6.0078 7.3906-8.6328 16.98-7.0352 26.562l3.6875 22.125c1.8984 11.406 10.246 20.578 21.07 23.766l7.1367 21.648c4.4961 13.629 13.746 25.191 26.047 32.57l21.039 12.613c9.7617 5.8555 20.941 8.9492 32.328 8.9492h5.2344c11.391 0 22.566-3.0938 32.328-8.9492l21.039-12.613c12.301-7.3789 21.555-18.945 26.047-32.574l7.1328-21.645c10.824-3.1836 19.176-12.359 21.074-23.762l3.6875-22.125c1.5977-9.582-1.0312-19.172-7.0352-26.566h8.2617c15.629 0 28.344-12.711 28.344-28.34 0-15.625-12.715-28.34-28.344-28.34h-0.76562v-14.031c0-43.75-32.508-80.035-74.633-86.004l0.003906-11.965c0-6.7656-5.4844-12.25-12.25-12.25h-54.168c-6.7656 0-12.25 5.4844-12.25 12.25v11.965c-42.133 5.9727-74.641 42.254-74.641 86.004zm194.72 79.871 5.7695 5.2422c2.2734 2.0664 3.3281 5.1016 2.8242 8.1328l-3.6875 22.129c-0.39453 2.3711-2.3438 4.207-4.7461 4.4609l-1.7148 0.18359c-5.4336 0.58594-10.039 4.3086-11.738 9.4805l-9.1055 27.621c-2.6523 8.0469-8.1133 14.879-15.379 19.234l-21.039 12.613c-5.957 3.5742-12.777 5.4648-19.734 5.4648l-5.2344 0.007813c-6.9492 0-13.777-1.8867-19.734-5.4648l-21.039-12.613c-7.2617-4.3555-12.727-11.184-15.379-19.23l-9.1055-27.617c-1.7031-5.1836-6.3125-8.9062-11.738-9.4922l-1.7266-0.18359c-2.3984-0.25391-4.3398-2.0938-4.7383-4.4648l-3.6875-22.133c-0.50781-3.0273 0.55078-6.0664 2.8242-8.1289l5.7734-5.25c2.6797-2.4375 3.9883-5.7891 3.9648-9.1484h154.4c-0.015625 3.3594 1.2891 6.7188 3.9727 9.1562zm37.824-37.5c0 2.1172-1.7227 3.8398-3.8438 3.8398h-229.47c-2.1133 0-3.8398-1.7227-3.8398-3.8398 0-2.1133 1.7227-3.8398 3.8398-3.8398h229.47c2.1211 0 3.8438 1.7227 3.8438 3.8398zm-157.91-103.53v23.625c0 6.7656 5.4844 12.25 12.25 12.25s12.25-5.4844 12.25-12.25v-48.184h29.668v48.18c0 6.7656 5.4844 12.25 12.25 12.25s12.25-5.4844 12.25-12.25v-23.625c28.551 5.707 50.133 30.957 50.133 61.164v14.031h-178.94v-14.031c0-30.203 21.582-55.453 50.137-61.16z"/>
  <path d="m91.449 286.6c0.98047 5.0586 5.0273 8.9688 10.113 9.7695 0.64062 0.10156 1.2812 0.15234 1.9141 0.15234 4.4062 0 8.5391-2.3828 10.719-6.332 21.625-39.16 48.098-75.484 71.172-98.047l11.09 13.066c2.1016 2.4766 5.1016 4.0195 8.3398 4.2852 1.7305 0.14062 3.4336-0.10938 5.0312-0.66797l157.38 179.38c5.6289 6.418 13.59 9.7109 21.59 9.7109 6.5703 0 13.168-2.2266 18.516-6.7617v-0.003906c11.863-10.066 13.477-28.035 3.6055-40.051l-151.4-184.44c0.8125-1.4883 1.3359-3.1328 1.4766-4.8555 0.26562-3.2383-0.76563-6.4492-2.8711-8.9258l-11.094-13.074c26.18-19.289 66.285-39.566 108.18-54.441 4.8633-1.7266 8.1172-6.3086 8.1523-11.461 0.035156-5.1562-3.1602-9.7773-7.9922-11.57-43.949-16.27-116.15 3.418-151.8 26.266l-3.3828-3.9844c-2.1016-2.4766-5.1016-4.0195-8.3398-4.2852-1.6719-0.13672-3.3164 0.074219-4.8555 0.58984l-1.6445-1.9336c-11.691-13.777-32.41-15.473-46.188-3.7812-6.6758 5.6641-10.742 13.586-11.457 22.312-0.71484 8.7227 2.0117 17.203 7.6758 23.879l1.6484 1.9375c-0.75781 1.4453-1.2344 3.0352-1.3711 4.6914-0.26562 3.2383 0.76562 6.4492 2.8711 8.9258l3.3828 3.9883c-28.305 31.445-59.398 99.527-50.461 145.66zm63.68-179.81-1.0625-1.2539c-1.4297-1.6836-2.1172-3.8242-1.9375-6.0273 0.18359-2.2031 1.207-4.1992 2.8906-5.6289 1.5078-1.2773 3.3828-1.9648 5.3359-1.9648 0.22656 0 0.45703 0.007813 0.69141 0.027344 2.2031 0.18359 4.1992 1.207 5.6289 2.8906l1.0664 1.2578zm236.33 265.69c-1.7344 1.4648-4.3438 1.2617-5.8398-0.42969l-156.55-178.45 12.301-10.438 150.62 183.48c1.4375 1.75 1.2031 4.3672-0.52344 5.832zm-271.86-137.89c7.9258-28.383 23.551-57.586 38.305-74.812l11.598 13.664c-15.996 15.457-33.41 36.855-49.902 61.148zm57.684-114.46 1.1484-0.97266 11.004-9.3398 2.8047 3.3008 27.895 32.867 11.387 13.414-13.805 11.719-10.496 8.9062-11.387-13.414-27.895-32.867-2.8047-3.3008 7.5195-6.3789zm53.875 0.98047-11.594-13.664c19.367-11.766 50.645-22.457 79.859-25.719-26.492 12.301-50.367 26.031-68.266 39.383z"/>
  <use x="70" y="612.5" xlink:href="#t"/>
  <use x="82.84375" y="612.5" xlink:href="#d"/>
  <use x="91.472656" y="612.5" xlink:href="#b"/>
  <use x="103.34375" y="612.5" xlink:href="#k"/>
  <use x="115.152344" y="612.5" xlink:href="#c"/>
  <use x="123.515625" y="612.5" xlink:href="#b"/>
  <use x="135.386719" y="612.5" xlink:href="#j"/>
  <use x="154.003906" y="612.5" xlink:href="#f"/>
  <use x="166.53125" y="612.5" xlink:href="#e"/>
  <use x="184.03125" y="612.5" xlink:href="#i"/>
  <use x="196.636719" y="612.5" xlink:href="#e"/>
  <use x="208.042969" y="612.5" xlink:href="#h"/>
  <use x="226.277344" y="612.5" xlink:href="#f"/>
  <use x="238.804687" y="612.5" xlink:href="#a"/>
  <use x="250.828125" y="612.5" xlink:href="#s"/>
  <use x="256.828125" y="612.5" xlink:href="#a"/>
  <use x="268.847656" y="612.5" xlink:href="#g"/>
  <use x="70" y="630" xlink:href="#r"/>
  <use x="77.613281" y="630" xlink:href="#d"/>
  <use x="86.242188" y="630" xlink:href="#a"/>
  <use x="98.265625" y="630" xlink:href="#h"/>
  <use x="122.59375" y="630" xlink:href="#c"/>
  <use x="130.960938" y="630" xlink:href="#q"/>
  <use x="143.417969" y="630" xlink:href="#b"/>
  <use x="161.378906" y="630" xlink:href="#p"/>
  <use x="176.023437" y="630" xlink:href="#a"/>
  <use x="188.046875" y="630" xlink:href="#o"/>
  <use x="200.507812" y="630" xlink:href="#g"/>
  <use x="219.058594" y="630" xlink:href="#n"/>
  <use x="231.882812" y="630" xlink:href="#d"/>
  <use x="240.515625" y="630" xlink:href="#a"/>
  <use x="252.535156" y="630" xlink:href="#m"/>
  <use x="258.535156" y="630" xlink:href="#b"/>
  <use x="270.402344" y="630" xlink:href="#l"/>
  <use x="280.777344" y="630" xlink:href="#c"/>
 </g>
</svg>
